<?xml version="1.0" encoding="UTF-8"?>
<svg id="Layer_1" xmlns="http://www.w3.org/2000/svg" version="1.1" viewBox="0 0 60 60">
  <!-- Generator: Adobe Illustrator 29.8.1, SVG Export Plug-In . SVG Version: 2.1.1 Build 2)  -->
  <defs>
    <style>
      .st0 {
        fill: none;
        stroke: #d8d8d8;
        stroke-miterlimit: 10;
      }
    </style>
  </defs>
  <path class="st0" d="M.6,30c0,16.2,13.2,29.4,29.4,29.4s29.4-13.2,29.4-29.4S46.2.6,30,.6.6,13.8.6,30Z"/>
  <path class="st0" d="M6.6,30c0,12.9,10.5,23.4,23.4,23.4s23.4-10.5,23.4-23.4S42.9,6.6,30,6.6,6.6,17.1,6.6,30Z"/>
  <path class="st0" d="M12.6,30c0,9.6,7.8,17.4,17.4,17.4s17.4-7.8,17.4-17.4-7.8-17.4-17.4-17.4-17.4,7.8-17.4,17.4Z"/>
  <path class="st0" d="M18.6,30c0,6.3,5.1,11.4,11.4,11.4s11.4-5.1,11.4-11.4-5.1-11.4-11.4-11.4-11.4,5.1-11.4,11.4Z"/>
  <path class="st0" d="M24.6,30c0,3,2.4,5.4,5.4,5.4s5.4-2.4,5.4-5.4-2.4-5.4-5.4-5.4-5.4,2.4-5.4,5.4Z"/>
</svg>