<?xml version="1.0" encoding="UTF-8"?>
<svg id="Layer_1" xmlns="http://www.w3.org/2000/svg" version="1.1" viewBox="0 0 60 60">
  <!-- Generator: Adobe Illustrator 29.8.1, SVG Export Plug-In . SVG Version: 2.1.1 Build 2)  -->
  <defs>
    <style>
      .st0 {
        fill: none;
        stroke: #d8d8d8;
        stroke-miterlimit: 10;
      }
    </style>
  </defs>
  <path class="st0" d="M.6,59.2c0,.1.1.3.3.3h58.3c.1,0,.3-.1.3-.3V.9c0-.1-.1-.3-.3-.3H.8c-.1,0-.3.1-.3.3v58.3h0Z"/>
  <path class="st0" d="M6.6,53.2c0,.1,0,.2.2.2h46.4c.1,0,.2,0,.2-.2V6.8c0-.1,0-.2-.2-.2H6.8c-.1,0-.2,0-.2.2v46.4h0Z"/>
  <path class="st0" d="M12.6,47.2c0,.1.1.3.3.3h34.3c.1,0,.3-.1.3-.3V12.9c0-.1-.1-.3-.3-.3H12.8c-.1,0-.3.1-.3.3v34.3h0Z"/>
  <path class="st0" d="M18.6,41.2c0,.1.1.2.2.2h22.3c.1,0,.2-.1.2-.2v-22.3c0-.1-.1-.2-.2-.2h-22.3c-.1,0-.2.1-.2.2v22.3h0Z"/>
  <path class="st0" d="M24.6,35.2c0,.1,0,.2.2.2h10.4c.1,0,.2,0,.2-.2v-10.4c0-.1,0-.2-.2-.2h-10.4c-.1,0-.2,0-.2.2v10.4Z"/>
  <path class="st0" d="M29.3,30.1c0-.4.3-.7.7-.7s.7.3.7.7-.3.7-.7.7-.7-.3-.7-.7Z"/>
</svg>