<?xml version="1.0" encoding="UTF-8"?>
<svg id="Layer_1" xmlns="http://www.w3.org/2000/svg" version="1.1" viewBox="0 0 60 60">
  <!-- Generator: Adobe Illustrator 29.8.1, SVG Export Plug-In . SVG Version: 2.1.1 Build 2)  -->
  <defs>
    <style>
      .st0 {
        fill: none;
        stroke: #d8d8d8;
        stroke-miterlimit: 10;
      }
    </style>
  </defs>
  <path class="st0" d="M.5,59.2c4.7-.1,8.8-1.1,12.5-3,10.1-5.1,16.5-15,16.5-26.2S23.1,8.8,13,3.7C9.3,1.9,5.2.9.5.8"/>
  <path class="st0" d="M59.6.8c-4.7.1-8.8,1.1-12.5,3-10.1,5.1-16.5,15-16.5,26.3s6.4,21.1,16.5,26.2c3.6,1.8,7.8,2.8,12.5,3"/>
  <path class="st0" d="M59.9,6.6c-9.8.6-16.8,5.1-21,13.5-1.5,3-2.2,6.3-2.2,9.9,0,3.6.8,6.9,2.3,9.9,4.3,8.4,11.3,12.9,21.1,13.4"/>
  <path class="st0" d="M60,54.4"/>
  <path class="st0" d="M.4,53.3c7.8-.4,13.9-3.5,18.2-9.2,3.2-4.2,4.8-8.9,4.8-14.1,0-5.2-1.6-9.9-4.8-14.1C14.3,10.2,8.2,7.1.4,6.7"/>
  <path class="st0" d="M.5,47.3c5.7-.3,10.3-2.6,13.6-7.1,2.3-3.1,3.4-6.4,3.4-10.2,0-3.7-1.1-7.1-3.4-10.2-3.3-4.5-7.8-6.8-13.6-7.1"/>
  <path class="st0" d="M59.8,12.6c-6.8.5-11.7,3.5-14.9,9-1.5,2.5-2.2,5.3-2.2,8.3s.7,5.8,2.2,8.3c3.2,5.5,8.2,8.5,14.9,9"/>
  <path class="st0" d="M59.6,18.7c-6.2.4-11,5.2-11,11.3,0,6.1,4.8,10.9,11,11.3"/>
  <path class="st0" d="M.4,41.3c5.3-.5,8.9-3.2,10.6-8.2.3-.9.5-1.9.5-3.1h0c0-1.2-.1-2.3-.4-3.1-1.7-5-5.2-7.7-10.5-8.2"/>
  <path class="st0" d="M.6,35.3c2.7-.3,4.9-2.5,4.9-5.3,0-2.8-2.1-5-4.9-5.3"/>
  <path class="st0" d="M59.7,24.6c-2.8.2-5.1,2.5-5.1,5.3,0,2.8,2.2,5.1,5,5.4"/>
</svg>