<?xml version="1.0" encoding="UTF-8"?>
<svg id="Layer_1" xmlns="http://www.w3.org/2000/svg" version="1.1" viewBox="0 0 60 60">
  <!-- Generator: Adobe Illustrator 29.8.1, SVG Export Plug-In . SVG Version: 2.1.1 Build 2)  -->
  <defs>
    <style>
      .st0 {
        fill: none;
        stroke: #d8d8d8;
        stroke-miterlimit: 10;
      }
    </style>
  </defs>
  <path class="st0" d="M47.9,25c0,2.3,0,4.1,0,5.3-.2,4.8-1.9,8.8-5.1,12.1-10,10.2-27.1,5.3-30.2-8.5-2.1-9.1,3.2-18.1,12.3-21,1.7-.5,4.7-.8,9.1-.8,5.8,0,15.2,0,26.1,0M53.7,25c0,2.5,0,4.4,0,5.5,0,3.2-.7,6.3-2.1,9.3-3,6.4-7.9,10.7-14.5,12.8-4.9,1.5-9.7,1.5-14.5-.1C6.5,47,1,27.1,12.3,14.3c3.3-3.7,7.4-6.2,12.4-7.4,1.9-.4,5.2-.7,10.1-.6,7.2,0,16.2,0,25.2,0M36.4,25c0,1,0,2.1,0,3.4,0,3-.4,5.3-3,6.9-3.7,2.4-8.3.4-9.5-3.7-.5-1.9-.2-3.7,1.1-5.4,2-2.7,4.4-2.6,8.1-2.6,12.4,0,21.1,0,26.1,0,.2,0,.3.1.3.3,0,3,.2,6,0,8.6-.9,9.5-5.4,16.9-13.4,22.2-12.7,8.4-30.1,5.2-39.3-6.9C-6.7,30.3,3.1,5.1,24.8,1.1c1.8-.3,5.2-.5,10.1-.5,4.2,0,13.3,0,25,0M42.1,25c0,1.2,0,2.8,0,5,0,5-3,9.4-7.7,11.3-7.6,3-16-2.3-16.5-10.5-.2-3.3.8-6.2,2.9-8.6,1.6-1.8,3.5-3.1,5.7-3.7,1.3-.4,3.5-.6,6.5-.6,11.4,0,21,0,27,0"/>
</svg>